<svg width="16" height="16" viewBox="0 0 16 16" fill="none" xmlns="http://www.w3.org/2000/svg">
<mask id="mask0_761_1397" style="mask-type:alpha" maskUnits="userSpaceOnUse" x="0" y="0" width="16" height="16">
<rect width="16" height="16" fill="#D9D9D9"/>
</mask>
<g mask="url(#mask0_761_1397)">
<path d="M3.90004 11.4C4.46671 10.9667 5.10004 10.625 5.80004 10.375C6.50004 10.125 7.23337 10 8.00004 10C8.76671 10 9.50004 10.125 10.2 10.375C10.9 10.625 11.5334 10.9667 12.1 11.4C12.4889 10.9445 12.7917 10.4278 13.0084 9.85004C13.225 9.27226 13.3334 8.6556 13.3334 8.00004C13.3334 6.52226 12.8139 5.26393 11.775 4.22504C10.7362 3.18615 9.47782 2.66671 8.00004 2.66671C6.52226 2.66671 5.26393 3.18615 4.22504 4.22504C3.18615 5.26393 2.66671 6.52226 2.66671 8.00004C2.66671 8.6556 2.77504 9.27226 2.99171 9.85004C3.20837 10.4278 3.51115 10.9445 3.90004 11.4ZM8.00004 8.66671C7.34449 8.66671 6.79171 8.44171 6.34171 7.99171C5.89171 7.54171 5.66671 6.98893 5.66671 6.33337C5.66671 5.67782 5.89171 5.12504 6.34171 4.67504C6.79171 4.22504 7.34449 4.00004 8.00004 4.00004C8.6556 4.00004 9.20837 4.22504 9.65837 4.67504C10.1084 5.12504 10.3334 5.67782 10.3334 6.33337C10.3334 6.98893 10.1084 7.54171 9.65837 7.99171C9.20837 8.44171 8.6556 8.66671 8.00004 8.66671ZM8.00004 14.6667C7.07782 14.6667 6.21115 14.4917 5.40004 14.1417C4.58893 13.7917 3.88337 13.3167 3.28337 12.7167C2.68337 12.1167 2.20837 11.4112 1.85837 10.6C1.50837 9.78893 1.33337 8.92226 1.33337 8.00004C1.33337 7.07782 1.50837 6.21115 1.85837 5.40004C2.20837 4.58893 2.68337 3.88337 3.28337 3.28337C3.88337 2.68337 4.58893 2.20837 5.40004 1.85837C6.21115 1.50837 7.07782 1.33337 8.00004 1.33337C8.92226 1.33337 9.78893 1.50837 10.6 1.85837C11.4112 2.20837 12.1167 2.68337 12.7167 3.28337C13.3167 3.88337 13.7917 4.58893 14.1417 5.40004C14.4917 6.21115 14.6667 7.07782 14.6667 8.00004C14.6667 8.92226 14.4917 9.78893 14.1417 10.6C13.7917 11.4112 13.3167 12.1167 12.7167 12.7167C12.1167 13.3167 11.4112 13.7917 10.6 14.1417C9.78893 14.4917 8.92226 14.6667 8.00004 14.6667ZM8.00004 13.3334C8.58893 13.3334 9.14449 13.2473 9.66671 13.075C10.1889 12.9028 10.6667 12.6556 11.1 12.3334C10.6667 12.0112 10.1889 11.7639 9.66671 11.5917C9.14449 11.4195 8.58893 11.3334 8.00004 11.3334C7.41115 11.3334 6.8556 11.4195 6.33337 11.5917C5.81115 11.7639 5.33337 12.0112 4.90004 12.3334C5.33337 12.6556 5.81115 12.9028 6.33337 13.075C6.8556 13.2473 7.41115 13.3334 8.00004 13.3334ZM8.00004 7.33337C8.28893 7.33337 8.52782 7.23893 8.71671 7.05004C8.9056 6.86115 9.00004 6.62226 9.00004 6.33337C9.00004 6.04449 8.9056 5.8056 8.71671 5.61671C8.52782 5.42782 8.28893 5.33337 8.00004 5.33337C7.71115 5.33337 7.47226 5.42782 7.28337 5.61671C7.09449 5.8056 7.00004 6.04449 7.00004 6.33337C7.00004 6.62226 7.09449 6.86115 7.28337 7.05004C7.47226 7.23893 7.71115 7.33337 8.00004 7.33337Z" fill="#DBB33A"/>
</g>
</svg>
