<svg width="16" height="16" viewBox="0 0 16 16" fill="none" xmlns="http://www.w3.org/2000/svg">
<mask id="mask0_778_529" style="mask-type:alpha" maskUnits="userSpaceOnUse" x="0" y="0" width="16" height="16">
<rect width="16" height="16" fill="#D9D9D9"/>
</mask>
<g mask="url(#mask0_778_529)">
<path d="M6.90002 11.3334L10.6667 7.56669L9.70002 6.60002L6.88335 9.41669L5.48335 8.01669L4.53335 8.96669L6.90002 11.3334ZM4.33335 13.3334C3.32224 13.3334 2.45835 12.9834 1.74169 12.2834C1.02502 11.5834 0.666687 10.7278 0.666687 9.71669C0.666687 8.85002 0.927798 8.0778 1.45002 7.40002C1.97224 6.72224 2.65558 6.28891 3.50002 6.10002C3.7778 5.0778 4.33335 4.25002 5.16669 3.61669C6.00002 2.98335 6.94447 2.66669 8.00002 2.66669C9.30002 2.66669 10.4028 3.11946 11.3084 4.02502C12.2139 4.93058 12.6667 6.03335 12.6667 7.33335C13.4334 7.42224 14.0695 7.7528 14.575 8.32502C15.0806 8.89724 15.3334 9.56669 15.3334 10.3334C15.3334 11.1667 15.0417 11.875 14.4584 12.4584C13.875 13.0417 13.1667 13.3334 12.3334 13.3334H4.33335ZM4.33335 12H12.3334C12.8 12 13.1945 11.8389 13.5167 11.5167C13.8389 11.1945 14 10.8 14 10.3334C14 9.86669 13.8389 9.47224 13.5167 9.15002C13.1945 8.8278 12.8 8.66669 12.3334 8.66669H11.3334V7.33335C11.3334 6.41113 11.0084 5.62502 10.3584 4.97502C9.70835 4.32502 8.92224 4.00002 8.00002 4.00002C7.0778 4.00002 6.29169 4.32502 5.64169 4.97502C4.99169 5.62502 4.66669 6.41113 4.66669 7.33335H4.33335C3.68891 7.33335 3.13891 7.56113 2.68335 8.01669C2.2278 8.47224 2.00002 9.02224 2.00002 9.66669C2.00002 10.3111 2.2278 10.8611 2.68335 11.3167C3.13891 11.7722 3.68891 12 4.33335 12Z" fill="#DBB33A"/>
</g>
</svg>
