<svg width="16" height="16" viewBox="0 0 16 16" fill="none" xmlns="http://www.w3.org/2000/svg">
<mask id="mask0_761_1409" style="mask-type:alpha" maskUnits="userSpaceOnUse" x="0" y="0" width="16" height="16">
<rect width="16" height="16" fill="#D9D9D9"/>
</mask>
<g mask="url(#mask0_761_1409)">
<path d="M3.33333 14C2.96667 14 2.65278 13.8695 2.39167 13.6084C2.13056 13.3472 2 13.0334 2 12.6667V3.33336C2 2.96669 2.13056 2.6528 2.39167 2.39169C2.65278 2.13058 2.96667 2.00002 3.33333 2.00002H9.28333L7.95 3.33336H3.33333V12.6667H12.6667V8.03336L14 6.70002V12.6667C14 13.0334 13.8694 13.3472 13.6083 13.6084C13.3472 13.8695 13.0333 14 12.6667 14H3.33333ZM6 10V7.16669L12.1167 1.05002C12.25 0.916691 12.4 0.816691 12.5667 0.750024C12.7333 0.683358 12.9 0.650024 13.0667 0.650024C13.2444 0.650024 13.4139 0.683358 13.575 0.750024C13.7361 0.816691 13.8833 0.916691 14.0167 1.05002L14.95 2.00002C15.0722 2.13336 15.1667 2.28058 15.2333 2.44169C15.3 2.6028 15.3333 2.76669 15.3333 2.93336C15.3333 3.10002 15.3028 3.26391 15.2417 3.42502C15.1806 3.58614 15.0833 3.73336 14.95 3.86669L8.83333 10H6ZM7.33333 8.66669H8.26667L12.1333 4.80002L11.6667 4.33336L11.1833 3.86669L7.33333 7.71669V8.66669Z" fill="#DBB33A"/>
</g>
</svg>
