<svg width="16" height="16" viewBox="0 0 16 16" fill="none" xmlns="http://www.w3.org/2000/svg">
<path d="M13.7656 6.9125H8.12031V9.23281H11.3453C11.2062 9.98281 10.7844 10.6172 10.1484 11.0422C9.61094 11.4016 8.925 11.6141 8.11875 11.6141C6.55781 11.6141 5.2375 10.5594 4.76562 9.14219C4.64688 8.78281 4.57812 8.39844 4.57812 8.00313C4.57812 7.60781 4.64688 7.22344 4.76562 6.86406C5.23906 5.44844 6.55937 4.39375 8.12031 4.39375C9 4.39375 9.78906 4.69688 10.4109 5.29063L12.1297 3.57031C11.0906 2.60156 9.73594 2.00781 8.12031 2.00781C5.77813 2.00781 3.75156 3.35156 2.76562 5.31094C2.35938 6.12031 2.12812 7.03594 2.12812 8.00469C2.12812 8.97344 2.35938 9.8875 2.76562 10.6969C3.75156 12.6562 5.77813 14 8.12031 14C9.73906 14 11.0953 13.4625 12.0859 12.5469C13.2187 11.5031 13.8734 9.96563 13.8734 8.13906C13.8734 7.71406 13.8359 7.30625 13.7656 6.9125Z" fill="black"/>
</svg>
