<svg width="16" height="16" viewBox="0 0 16 16" fill="none" xmlns="http://www.w3.org/2000/svg">
<mask id="mask0_761_1403" style="mask-type:alpha" maskUnits="userSpaceOnUse" x="0" y="0" width="16" height="16">
<rect width="16" height="16" fill="#D9D9D9"/>
</mask>
<g mask="url(#mask0_761_1403)">
<path d="M8.50003 14.6666C6.73867 14.6666 5.21026 14.0944 3.91481 12.95C2.61935 11.8055 1.8864 10.3778 1.71594 8.66665H3.09662C3.26708 10.0111 3.86651 11.125 4.89492 12.0083C5.92333 12.8916 7.12503 13.3333 8.50003 13.3333C10.0228 13.3333 11.3125 12.8166 12.3694 11.7833C13.4262 10.75 13.9546 9.48887 13.9546 7.99998C13.9546 6.51109 13.4262 5.24998 12.3694 4.21665C11.3125 3.18331 10.0228 2.66665 8.50003 2.66665C7.52276 2.66665 6.61651 2.90276 5.78128 3.37498C4.94606 3.8472 4.28412 4.49998 3.79549 5.33331H5.77276V6.66665H1.81822C2.14776 5.11109 2.93753 3.83331 4.18753 2.83331C5.43753 1.83331 6.87503 1.33331 8.50003 1.33331C9.44322 1.33331 10.3296 1.50831 11.1591 1.85831C11.9887 2.20831 12.7103 2.68331 13.3239 3.28331C13.9375 3.88331 14.4233 4.58887 14.7813 5.39998C15.1392 6.21109 15.3182 7.07776 15.3182 7.99998C15.3182 8.9222 15.1392 9.78887 14.7813 10.6C14.4233 11.4111 13.9375 12.1166 13.3239 12.7166C12.7103 13.3166 11.9887 13.7916 11.1591 14.1416C10.3296 14.4916 9.44322 14.6666 8.50003 14.6666ZM10.4091 10.8L7.81822 8.26665V4.66665H9.18185V7.73331L11.3637 9.86665L10.4091 10.8Z" fill="#DBB33A"/>
</g>
</svg>
