<svg width="16" height="16" viewBox="0 0 16 16" fill="none" xmlns="http://www.w3.org/2000/svg">
<g clip-path="url(#clip0_1458_476)">
<path d="M11.6663 4.33301H11.673M4.66634 1.33301H11.333C13.174 1.33301 14.6663 2.82539 14.6663 4.66634V11.333C14.6663 13.174 13.174 14.6663 11.333 14.6663H4.66634C2.82539 14.6663 1.33301 13.174 1.33301 11.333V4.66634C1.33301 2.82539 2.82539 1.33301 4.66634 1.33301ZM10.6663 7.57967C10.7486 8.13451 10.6538 8.70115 10.3955 9.19902C10.1372 9.69688 9.72844 10.1006 9.22743 10.3528C8.72641 10.605 8.15864 10.6927 7.60487 10.6036C7.05109 10.5145 6.53952 10.2531 6.1429 9.85645C5.74629 9.45983 5.48483 8.94826 5.39572 8.39448C5.30661 7.84071 5.39438 7.27294 5.64656 6.77192C5.89873 6.27091 6.30247 5.86217 6.80033 5.60384C7.2982 5.3455 7.86484 5.25073 8.41967 5.33301C8.98562 5.41693 9.50958 5.68065 9.91414 6.08521C10.3187 6.48977 10.5824 7.01373 10.6663 7.57967Z" stroke="#1E1E1E" stroke-width="1.33333" stroke-linecap="round" stroke-linejoin="round"/>
</g>
<defs>
<clipPath id="clip0_1458_476">
<rect width="16" height="16" fill="white"/>
</clipPath>
</defs>
</svg>
