<svg width="16" height="16" viewBox="0 0 16 16" fill="none" xmlns="http://www.w3.org/2000/svg">
<path d="M12.6663 5.33301C12.1108 5.33301 11.6386 5.13856 11.2497 4.74967C10.8608 4.36079 10.6663 3.88856 10.6663 3.33301C10.6663 2.77745 10.8608 2.30523 11.2497 1.91634C11.6386 1.52745 12.1108 1.33301 12.6663 1.33301C13.2219 1.33301 13.6941 1.52745 14.083 1.91634C14.4719 2.30523 14.6663 2.77745 14.6663 3.33301C14.6663 3.88856 14.4719 4.36079 14.083 4.74967C13.6941 5.13856 13.2219 5.33301 12.6663 5.33301ZM2.66634 13.333C2.29967 13.333 1.98579 13.2025 1.72467 12.9413C1.46356 12.6802 1.33301 12.3663 1.33301 11.9997V3.99967C1.33301 3.63301 1.46356 3.31912 1.72467 3.05801C1.98579 2.7969 2.29967 2.66634 2.66634 2.66634H9.39967C9.35523 2.88856 9.33301 3.11079 9.33301 3.33301C9.33301 3.55523 9.35523 3.77745 9.39967 3.99967C9.47745 4.35523 9.60523 4.68579 9.78301 4.99134C9.96079 5.2969 10.1775 5.56634 10.433 5.79967L7.99967 7.33301L2.66634 3.99967V5.33301L7.99967 8.66634L11.5163 6.46634C11.7052 6.53301 11.8941 6.58301 12.083 6.61634C12.2719 6.64967 12.4663 6.66634 12.6663 6.66634C13.0219 6.66634 13.3719 6.61079 13.7163 6.49967C14.0608 6.38856 14.3775 6.2219 14.6663 5.99967V11.9997C14.6663 12.3663 14.5358 12.6802 14.2747 12.9413C14.0136 13.2025 13.6997 13.333 13.333 13.333H2.66634Z" fill="#1D1B20"/>
</svg>
