<svg width="16" height="16" viewBox="0 0 16 16" fill="none" xmlns="http://www.w3.org/2000/svg">
<mask id="mask0_779_549" style="mask-type:alpha" maskUnits="userSpaceOnUse" x="0" y="0" width="16" height="16">
<rect width="16" height="16" fill="#D9D9D9"/>
</mask>
<g mask="url(#mask0_779_549)">
<path d="M1.81669 7.15002L0.400024 5.73335C1.42225 4.74446 2.58891 3.98613 3.90002 3.45835C5.21114 2.93058 6.5778 2.66669 8.00003 2.66669C9.42225 2.66669 10.7889 2.93058 12.1 3.45835C13.4111 3.98613 14.5778 4.74446 15.6 5.73335L14.1834 7.15002C13.35 6.35002 12.4 5.73613 11.3334 5.30835C10.2667 4.88058 9.15558 4.66669 8.00003 4.66669C6.84447 4.66669 5.73336 4.88058 4.66669 5.30835C3.60002 5.73613 2.65002 6.35002 1.81669 7.15002ZM4.63336 9.96669L3.23336 8.56669C3.88891 7.95558 4.62502 7.48613 5.44169 7.15835C6.25836 6.83058 7.11114 6.66669 8.00003 6.66669C8.88891 6.66669 9.74169 6.83058 10.5584 7.15835C11.375 7.48613 12.1111 7.95558 12.7667 8.56669L11.3667 9.96669C10.9 9.54446 10.3806 9.22224 9.80836 9.00002C9.23614 8.7778 8.63336 8.66669 8.00003 8.66669C7.36669 8.66669 6.76391 8.7778 6.19169 9.00002C5.61947 9.22224 5.10002 9.54446 4.63336 9.96669ZM8.00003 13.3334C7.63336 13.3334 7.31947 13.2028 7.05836 12.9417C6.79725 12.6806 6.66669 12.3667 6.66669 12C6.66669 11.6334 6.79725 11.3195 7.05836 11.0584C7.31947 10.7972 7.63336 10.6667 8.00003 10.6667C8.36669 10.6667 8.68058 10.7972 8.94169 11.0584C9.2028 11.3195 9.33336 11.6334 9.33336 12C9.33336 12.3667 9.2028 12.6806 8.94169 12.9417C8.68058 13.2028 8.36669 13.3334 8.00003 13.3334Z" fill="#DBB33A"/>
</g>
</svg>
