<svg width="24" height="24" viewBox="0 0 24 24" fill="none" xmlns="http://www.w3.org/2000/svg">
<g opacity="0.05" clip-path="url(#clip0_769_302)">
<path d="M16.7861 0.75L12 10.3232L7.21387 0.75H16.7861Z" stroke="#EAEAEB" stroke-width="1.5"/>
<path d="M10.7861 12.75L6 22.3232L1.21387 12.75H10.7861Z" stroke="#EAEAEB" stroke-width="1.5"/>
<path d="M4.78613 0.75L0 10.3232L-4.78613 0.75H4.78613Z" stroke="#EAEAEB" stroke-width="1.5"/>
<g clip-path="url(#clip1_769_302)">
<path d="M10.7861 12.75L6 22.3232L1.21387 12.75H10.7861Z" stroke="#EAEAEB" stroke-width="1.5"/>
</g>
<g clip-path="url(#clip2_769_302)">
<path d="M22.7861 12.75L18 22.3232L13.2139 12.75H22.7861Z" stroke="#EAEAEB" stroke-width="1.5"/>
</g>
<g clip-path="url(#clip3_769_302)">
<path d="M10.7861 12.75L6 22.3232L1.21387 12.75H10.7861Z" stroke="#EAEAEB" stroke-width="1.5"/>
<path d="M22.7861 12.75L18 22.3232L13.2139 12.75H22.7861Z" stroke="#EAEAEB" stroke-width="1.5"/>
</g>
<g clip-path="url(#clip4_769_302)">
<path d="M16.7861 0.75L12 10.3232L7.21387 0.75H16.7861Z" stroke="#EAEAEB" stroke-width="1.5"/>
<path d="M28.7861 0.75L24 10.3232L19.2139 0.75H28.7861Z" stroke="#EAEAEB" stroke-width="1.5"/>
</g>
</g>
<defs>
<clipPath id="clip0_769_302">
<rect width="24" height="24" fill="white"/>
</clipPath>
<clipPath id="clip1_769_302">
<rect width="12" height="12" fill="white" transform="translate(-6 12)"/>
</clipPath>
<clipPath id="clip2_769_302">
<rect width="12" height="12" fill="white" transform="translate(18 12)"/>
</clipPath>
<clipPath id="clip3_769_302">
<rect width="12" height="12" fill="white" transform="translate(6 12)"/>
</clipPath>
<clipPath id="clip4_769_302">
<rect width="12" height="12" fill="white" transform="translate(12)"/>
</clipPath>
</defs>
</svg>
