<svg width="20" height="16" viewBox="0 0 20 16" fill="none" xmlns="http://www.w3.org/2000/svg">
<path d="M20 10.667L15 16H14.085L19.0859 10.666L10 0.974609L0.913086 10.666L5.91406 16H5L0 10.667L10 0L20 10.667Z" fill="#DC3957"/>
<mask id="mask0_761_1543" style="mask-type:alpha" maskUnits="userSpaceOnUse" x="6" y="6" width="8" height="8">
<rect x="6" y="6" width="8" height="8" fill="#D9D9D9"/>
</mask>
<g mask="url(#mask0_761_1543)">
<path d="M7.95002 11.7C8.23335 11.4833 8.55002 11.3125 8.90002 11.1875C9.25002 11.0625 9.61669 11 10 11C10.3834 11 10.75 11.0625 11.1 11.1875C11.45 11.3125 11.7667 11.4833 12.05 11.7C12.2445 11.4722 12.3959 11.2138 12.5042 10.925C12.6125 10.6361 12.6667 10.3277 12.6667 9.99996C12.6667 9.26107 12.407 8.6319 11.8875 8.11246C11.3681 7.59301 10.7389 7.33329 10 7.33329C9.26113 7.33329 8.63196 7.59301 8.11252 8.11246C7.59308 8.6319 7.33335 9.26107 7.33335 9.99996C7.33335 10.3277 7.38752 10.6361 7.49585 10.925C7.60419 11.2138 7.75558 11.4722 7.95002 11.7ZM10 10.3333C9.67224 10.3333 9.39585 10.2208 9.17085 9.99579C8.94585 9.77079 8.83335 9.4944 8.83335 9.16663C8.83335 8.83885 8.94585 8.56246 9.17085 8.33746C9.39585 8.11246 9.67224 7.99996 10 7.99996C10.3278 7.99996 10.6042 8.11246 10.8292 8.33746C11.0542 8.56246 11.1667 8.83885 11.1667 9.16663C11.1667 9.4944 11.0542 9.77079 10.8292 9.99579C10.6042 10.2208 10.3278 10.3333 10 10.3333ZM10 13.3333C9.53891 13.3333 9.10558 13.2458 8.70002 13.0708C8.29446 12.8958 7.94169 12.6583 7.64169 12.3583C7.34169 12.0583 7.10419 11.7055 6.92919 11.3C6.75419 10.8944 6.66669 10.4611 6.66669 9.99996C6.66669 9.53885 6.75419 9.10551 6.92919 8.69996C7.10419 8.2944 7.34169 7.94163 7.64169 7.64163C7.94169 7.34163 8.29446 7.10413 8.70002 6.92913C9.10558 6.75413 9.53891 6.66663 10 6.66663C10.4611 6.66663 10.8945 6.75413 11.3 6.92913C11.7056 7.10413 12.0584 7.34163 12.3584 7.64163C12.6584 7.94163 12.8959 8.2944 13.0709 8.69996C13.2459 9.10551 13.3334 9.53885 13.3334 9.99996C13.3334 10.4611 13.2459 10.8944 13.0709 11.3C12.8959 11.7055 12.6584 12.0583 12.3584 12.3583C12.0584 12.6583 11.7056 12.8958 11.3 13.0708C10.8945 13.2458 10.4611 13.3333 10 13.3333ZM10 12.6666C10.2945 12.6666 10.5722 12.6236 10.8334 12.5375C11.0945 12.4513 11.3334 12.3277 11.55 12.1666C11.3334 12.0055 11.0945 11.8819 10.8334 11.7958C10.5722 11.7097 10.2945 11.6666 10 11.6666C9.70558 11.6666 9.4278 11.7097 9.16669 11.7958C8.90558 11.8819 8.66669 12.0055 8.45002 12.1666C8.66669 12.3277 8.90558 12.4513 9.16669 12.5375C9.4278 12.6236 9.70558 12.6666 10 12.6666ZM10 9.66663C10.1445 9.66663 10.2639 9.6194 10.3584 9.52496C10.4528 9.43051 10.5 9.31107 10.5 9.16663C10.5 9.02218 10.4528 8.90274 10.3584 8.80829C10.2639 8.71385 10.1445 8.66663 10 8.66663C9.85558 8.66663 9.73613 8.71385 9.64169 8.80829C9.54724 8.90274 9.50002 9.02218 9.50002 9.16663C9.50002 9.31107 9.54724 9.43051 9.64169 9.52496C9.73613 9.6194 9.85558 9.66663 10 9.66663Z" fill="#DBB33A"/>
</g>
</svg>
