<svg width="32" height="24" viewBox="0 0 32 24" fill="none" xmlns="http://www.w3.org/2000/svg">
<path d="M21.2938 22.2674H10.8477V8.67773H16.139C17.2715 8.67773 18.1957 8.8795 18.9117 9.28302C19.6146 9.67353 20.1613 10.2072 20.5518 10.8841C20.9423 11.561 21.1376 12.3095 21.1376 13.1295C21.1376 14.1449 20.8251 15.056 20.2003 15.8631C19.5755 16.6571 18.788 17.1843 17.8378 17.4447L21.2938 22.2674ZM12.0778 9.40018L17.3887 16.8198C18.2608 16.6376 18.9832 16.2015 19.556 15.5116C20.1287 14.8217 20.4151 14.0277 20.4151 13.1295C20.4151 12.4136 20.2394 11.7628 19.8879 11.177C19.5365 10.5912 19.0418 10.1421 18.404 9.82973C17.8313 9.54336 17.0828 9.40018 16.1586 9.40018H12.0778ZM11.5701 9.86879V16.8784H16.5881L11.5701 9.86879ZM11.5701 21.545H19.927L17.0763 17.5813L16.471 17.6009H11.5701V21.545Z" fill="#DBB33A"/>
<path d="M32 16L24 24H23.2324L31.2324 16L16 0.767578L0.767578 16L8.76758 24H8L0 16L16 0L32 16Z" fill="#DBB33A"/>
</svg>
